<svg width="20" height="16" version="1.1" viewBox="0 0 20 16" xmlns="http://www.w3.org/2000/svg"><path d="m2.6923 0-1.0694 1.0509 2.7376 2.6902a10.001 4.9218 0 0 0-4.3604 4.0624 10.001 4.9218 0 0 0 9.999 4.9217 10.001 4.9218 0 0 0 3.2339-0.26322l3.6002 3.5379 1.0694-1.0509-2.9266-2.876a10.001 4.9218 0 0 0 5.0241-4.2695 10.001 4.9218 0 0 0-10.001-4.9217 10.001 4.9218 0 0 0-0.092568 0 10.001 4.9218 0 0 0-3.87 0.4045zm10.395 4.2908a8.8211 3.7511 0 0 1 5.7331 3.5128 8.8211 3.7511 0 0 1-4.6677 3.3095 5.0279 4.8391 31.428 0 0-0.57312-6.3965 5.0279 4.8391 31.428 0 0-0.068932-0.067739 5.0279 4.8391 31.428 0 0-0.42344-0.35805zm-7.8149 0.34644 6.9188 6.801a8.8211 3.7511 0 0 1-2.192 0.11612 8.8211 3.7511 0 0 1-8.8193-3.7508 8.8211 3.7511 0 0 1 4.0926-3.1663zm4.7642 0.085157a3.4546 3.3949 0 0 1 2.4618 0.92899 3.4546 3.3949 0 0 1 0.06499 0.063868 3.4546 3.3949 0 0 1 0.37814 4.3566l-1.0615-1.0412a1.9938 1.9593 0 0 0-0.35057-2.2993 1.9938 1.9593 0 0 0-0.02167-0.023224 1.9938 1.9593 0 0 0-2.32-0.32321l-1.0596-1.0412a3.4546 3.3949 0 0 1 1.9084-0.62127z"/></svg>
